<svg xmlns="http://www.w3.org/2000/svg" width="400" height="400" viewBox="0 0 400 400" version="1.1"><path d="M 326 69.489 C 326 71.249, 322.982 75, 321.566 75 C 321.021 75, 318.759 76.767, 316.538 78.926 C 314.317 81.086, 310.926 83.252, 309.002 83.740 C 304.159 84.967, 303.936 87.494, 308.534 89.011 C 311.107 89.860, 312.473 91.059, 313.181 93.088 C 314.114 95.765, 314.493 95.939, 318.701 95.613 C 323.492 95.242, 324.960 93.965, 324.985 90.144 C 324.993 88.849, 326.164 86.405, 327.588 84.713 C 329.669 82.239, 330.097 80.842, 329.775 77.569 C 329.494 74.723, 329.832 73.157, 330.899 72.358 C 332.181 71.399, 332.211 70.960, 331.090 69.608 C 329.412 67.586, 326 67.506, 326 69.489 M 358.754 80.491 C 359.036 81.971, 358.770 83, 358.105 83 C 357.358 83, 357.182 84.286, 357.584 86.798 C 358.032 89.599, 357.775 90.941, 356.608 91.910 C 354.464 93.690, 351.636 92.499, 352.268 90.082 C 352.642 88.652, 352.118 88.061, 350.132 87.671 C 346.671 86.991, 345.518 88.252, 347.168 90.914 C 348.387 92.882, 348.169 93.343, 344.584 96.360 C 342.166 98.395, 340.952 100.114, 341.411 100.856 C 341.848 101.563, 341.209 102.820, 339.854 103.917 C 338.003 105.416, 337.593 106.651, 337.750 110.259 C 337.985 115.648, 335.637 118.351, 330.841 118.215 C 327.017 118.106, 319.703 121.634, 320.290 123.304 C 320.539 124.011, 322.183 124.382, 324.317 124.212 C 326.886 124.006, 328.509 124.509, 329.962 125.962 C 331.083 127.083, 332.900 128, 334 128 C 336.376 128, 336.517 128.771, 334.543 130.953 C 333.248 132.384, 333.465 132.978, 336.492 136.282 C 338.365 138.327, 340.596 140, 341.449 140 C 342.333 140, 343 140.860, 343 142 C 343 143.601, 343.667 144, 346.344 144 C 349.306 144, 356.326 148.274, 354.957 149.243 C 353.914 149.981, 349.347 151.917, 347.301 152.488 C 344.616 153.238, 343.435 156.493, 344.804 159.369 C 345.362 160.541, 346.084 162.323, 346.408 163.330 C 347.293 166.074, 352.746 164.524, 356.798 160.376 C 358.612 158.519, 360.665 157, 361.361 157 C 363.382 157, 368 162.405, 368 164.770 C 368 167.156, 370.667 169.005, 373 168.234 C 375.630 167.366, 378 164.753, 378 162.723 C 378 161.292, 378.341 161.023, 379.250 161.737 C 379.938 162.277, 382 163.003, 383.834 163.351 C 387.701 164.085, 393 167.570, 393 169.380 C 393 170.065, 392.100 172.487, 391 174.764 C 389.900 177.041, 389 179.500, 389 180.229 C 389 180.958, 388.392 182.443, 387.649 183.527 C 386.906 184.612, 386.012 186.682, 385.661 188.126 C 384.829 191.556, 375.511 201.090, 370.849 203.283 C 368.841 204.227, 366.073 205, 364.698 205 C 361.999 205, 358.954 209.064, 357.595 214.479 C 356.440 219.079, 351.741 222.735, 347.768 222.124 C 347.365 222.062, 346.760 223.247, 346.425 224.756 C 345.149 230.487, 344.717 231.558, 342.852 233.599 C 341.238 235.367, 341.110 236.157, 342.041 238.599 C 343.425 242.227, 340.522 251.981, 338.043 252.031 C 336.010 252.073, 332.814 256.539, 332.639 259.585 C 332.563 260.912, 332.163 261.999, 331.750 261.999 C 330.242 262.001, 327 257.946, 327 256.059 C 327 253.209, 325.516 252.773, 323.479 255.024 C 321.357 257.368, 317.742 257.599, 316 255.500 C 315.315 254.675, 314.473 254, 314.128 254 C 313.035 254, 313.629 260.029, 314.840 261.240 C 315.478 261.878, 316 263.444, 316 264.719 C 316 266.692, 315.628 266.945, 313.503 266.412 C 311.188 265.830, 311.049 265.995, 311.589 268.693 C 312.076 271.132, 311.753 271.792, 309.585 272.779 C 308.163 273.427, 307 274.309, 307 274.739 C 307 275.895, 302.075 281, 300.960 281 C 300.432 281, 299.964 279.988, 299.921 278.750 C 299.878 277.512, 299.615 277.063, 299.338 277.750 C 299.060 278.437, 297.746 279, 296.417 279 C 295.087 279, 294 279.450, 294 280 C 294 280.550, 293.314 281, 292.475 281 C 291.637 281, 290.523 282.125, 290 283.500 C 289.333 285.256, 288.298 286, 286.525 286 C 285.136 286, 284 286.488, 284 287.083 C 284 287.679, 283.438 287.966, 282.750 287.722 C 282.063 287.477, 279.612 288.368, 277.303 289.702 C 274.078 291.566, 272.668 291.893, 271.211 291.113 C 269.886 290.404, 267.822 290.492, 264.359 291.405 C 261.633 292.124, 257.962 292.501, 256.201 292.243 C 253.169 291.798, 251.799 293.140, 253.937 294.461 C 255.459 295.402, 258.018 301.162, 257.376 302.201 C 257.050 302.729, 257.732 303.824, 258.892 304.637 C 261.718 306.616, 261.599 309, 258.674 309 C 257.395 309, 255.292 310.125, 254 311.500 C 252.708 312.875, 250.832 314, 249.831 314 C 248.831 314, 245.958 316.025, 243.447 318.500 C 240.210 321.691, 238.062 323, 236.062 323 C 233.445 323, 230.823 325.468, 224.900 333.507 C 224.492 334.061, 224.998 336.900, 226.025 339.816 C 227.052 342.732, 227.669 345.698, 227.397 346.409 C 227.124 347.119, 225.236 348.575, 223.201 349.643 C 220.319 351.156, 219.369 352.352, 218.910 355.043 C 217.919 360.854, 216.849 363, 214.942 363 C 211.793 363, 211.890 364.728, 215.074 365.365 L 218.116 365.973 214.891 369.987 C 213.117 372.194, 211.103 374, 210.416 374 C 209.729 374, 208.992 374.524, 208.778 375.165 C 208.565 375.806, 207.130 376.385, 205.589 376.453 C 203.471 376.545, 202.560 375.973, 201.849 374.103 C 201.136 372.228, 201.270 371.429, 202.402 370.795 C 203.223 370.336, 205.240 368.828, 206.884 367.444 C 209.721 365.057, 209.806 364.768, 208.554 361.790 C 206.960 358, 204.565 357.473, 200.313 359.979 C 197.575 361.593, 196.960 361.657, 195.941 360.429 C 195.289 359.643, 195.051 359, 195.413 359 C 195.774 359, 195.589 358.100, 195 357 C 193.735 354.636, 190.753 354.388, 189 356.500 C 187.398 358.431, 185 358.435, 185 356.508 C 185 355.687, 183.689 353.848, 182.087 352.420 C 179.372 350.001, 179.287 349.713, 180.837 348.163 C 182.114 346.886, 183.927 346.577, 188.639 346.833 C 195.245 347.192, 201.070 344.951, 205.757 340.250 C 208.506 337.493, 208.824 334.442, 206.250 335.516 C 205.287 335.918, 202.475 336.645, 200 337.132 C 197.525 337.619, 194.262 338.927, 192.750 340.039 C 190.863 341.425, 189.976 341.658, 189.923 340.780 C 189.881 340.076, 189.687 338.650, 189.492 337.611 C 189.042 335.221, 190.946 333.294, 194.629 332.409 C 196.208 332.030, 198.761 331.084, 200.302 330.307 C 201.843 329.531, 204.622 328.759, 206.478 328.592 C 212.527 328.049, 215.421 322.646, 210.344 321.372 C 208.408 320.886, 207.336 321.187, 206.387 322.486 C 205.407 323.825, 204.304 324.111, 201.939 323.638 C 199.808 323.212, 197.829 323.572, 195.803 324.754 L 192.812 326.500 190.116 323.289 C 188.084 320.869, 186.873 320.220, 185.204 320.657 C 183.986 320.975, 182.360 320.714, 181.590 320.075 C 180.762 319.388, 179.071 319.195, 177.447 319.603 C 175.586 320.070, 174.917 319.943, 175.371 319.209 C 175.788 318.534, 174.431 317.807, 171.770 317.280 C 167.642 316.463, 167.495 316.303, 167.339 312.468 C 167.244 310.129, 167.879 307.474, 168.887 306 C 169.826 304.625, 172.114 300.350, 173.969 296.500 C 175.825 292.650, 177.499 289.193, 177.689 288.817 C 177.879 288.441, 176.615 286.807, 174.879 285.184 C 171.938 282.436, 171.800 282.012, 172.861 278.968 C 173.488 277.171, 174 273.774, 174 271.418 C 174 268.013, 174.410 267.005, 176 266.500 C 178.305 265.769, 178.547 264.130, 176.720 261.632 C 175.652 260.171, 174.965 260.063, 172.561 260.977 C 170.977 261.579, 168.750 261.943, 167.611 261.786 C 165.826 261.539, 165.422 262.236, 164.679 266.843 C 163.961 271.301, 163.518 272.107, 162.009 271.712 C 160.827 271.404, 159.461 272.238, 158.073 274.115 C 156.130 276.743, 156.077 277.188, 157.452 279.286 C 158.279 280.549, 160.591 282.173, 162.588 282.896 C 165.765 284.044, 166.038 284.391, 164.766 285.663 C 163.767 286.662, 162.415 286.891, 160.443 286.396 C 157.892 285.756, 157.791 285.593, 159.536 284.928 C 160.826 284.436, 159.992 284.234, 157.108 284.340 C 154.370 284.440, 152.549 284.029, 152.274 283.250 C 152.032 282.563, 152.546 282, 153.417 282 C 156.025 282, 155.204 279.268, 152.382 278.560 C 150.652 278.125, 149.185 278.428, 148.054 279.451 C 147.113 280.303, 145.183 281, 143.765 281 C 141.643 281, 141.284 280.631, 141.734 278.910 C 142.143 277.347, 142.874 276.934, 144.640 277.272 C 148.015 277.917, 147.559 276.049, 143.451 272.394 C 140.527 269.792, 140.018 268.777, 140.558 266.625 C 140.918 265.189, 141.633 264.273, 142.147 264.591 C 142.698 264.931, 142.801 264.007, 142.399 262.334 C 141.529 258.712, 141.315 258.500, 139.774 259.742 C 139.073 260.307, 137.037 261.082, 135.250 261.464 C 132.704 262.008, 132 261.830, 132 260.638 C 132 259.802, 132.450 258.840, 133 258.500 C 134.709 257.444, 134.099 254.123, 131.987 252.993 C 130.454 252.172, 130.199 251.497, 130.917 250.155 C 131.626 248.830, 131.381 248.095, 129.930 247.188 C 127.591 245.728, 127.380 243, 129.606 243 C 130.489 243, 132.097 241.875, 133.179 240.500 C 134.260 239.125, 135.874 238, 136.764 238 C 138.109 238, 138.054 237.752, 136.441 236.532 C 135.374 235.724, 133.244 235.049, 131.710 235.032 C 128.604 234.996, 122.764 231.191, 123.640 229.774 C 123.948 229.275, 123.593 228.985, 122.850 229.129 C 122.108 229.274, 120.474 229.044, 119.219 228.619 C 117.266 227.957, 117.027 227.371, 117.559 224.537 C 118.269 220.750, 117.109 219.593, 112.546 219.536 C 110.235 219.508, 109.463 218.957, 109.002 217.005 C 108.664 215.576, 107.577 214.377, 106.456 214.197 C 105.380 214.024, 103.825 213.611, 103 213.278 C 102.175 212.945, 101.206 212.634, 100.846 212.586 C 98.984 212.341, 92 204.867, 92 203.120 C 92 201.959, 90.294 199.724, 88.006 197.885 C 85.809 196.119, 83.469 193.173, 82.805 191.337 C 81.650 188.144, 79.724 187.019, 78.580 188.871 C 78.284 189.350, 76.599 190.030, 74.836 190.383 C 73.074 190.735, 70.748 191.806, 69.670 192.762 C 68.223 194.044, 67.593 194.170, 67.269 193.244 C 66.973 192.399, 66.214 192.726, 64.948 194.244 C 63.913 195.485, 63.052 195.988, 63.033 195.361 C 63.015 194.735, 62.261 194.285, 61.358 194.361 C 60.454 194.438, 59.517 193.938, 59.274 193.250 C 59.013 192.509, 59.681 192, 60.917 192 C 63.452 192, 63.666 189.487, 61.250 188.080 C 59.746 187.204, 59.876 187.057, 62.179 187.030 C 65.033 186.998, 68 184.712, 68 182.545 C 68 181.824, 68.958 180.983, 70.130 180.676 C 71.508 180.316, 72.057 179.591, 71.686 178.623 C 71.370 177.801, 71.987 176.015, 73.056 174.656 C 74.125 173.297, 75 171.448, 75 170.547 C 75 169.646, 76.194 167.715, 77.653 166.256 C 79.113 164.796, 79.889 163.463, 79.378 163.293 C 78.010 162.837, 78.985 154.763, 80.632 152.895 C 81.411 152.012, 81.802 150.648, 81.502 149.865 C 81.201 149.081, 82.155 146.991, 83.622 145.220 C 86.662 141.551, 90 140.912, 90 144 C 90 145.454, 90.667 146, 92.441 146 C 93.784 146, 95.178 145.521, 95.540 144.935 C 95.984 144.217, 96.737 144.335, 97.849 145.294 C 102.002 148.876, 106.444 147.415, 105.253 142.858 C 104.889 141.466, 105.315 141, 106.949 141 C 112.101 141, 115.398 135.845, 111.250 134.275 C 108.531 133.245, 107.304 131.660, 106.543 128.194 C 105.919 125.355, 105.546 125.069, 103.171 125.606 C 101.702 125.939, 99.688 127.176, 98.696 128.356 C 94.557 133.277, 94.055 134.001, 94.760 134.030 C 95.167 134.047, 94.640 134.560, 93.589 135.170 C 92.089 136.041, 91.430 135.940, 90.524 134.701 C 88.974 132.582, 83.439 132.801, 78.730 135.167 C 75.537 136.771, 74.875 136.839, 74.403 135.607 C 73.775 133.972, 71.262 134.057, 65.749 135.901 C 62.471 136.998, 61.920 137.645, 61.376 141.051 C 61.033 143.193, 59.684 146.396, 58.376 148.167 C 57.069 149.939, 55.994 152.314, 55.986 153.444 C 55.946 159.508, 52.335 163, 46.106 163 C 44.406 163, 42.549 163.762, 41.807 164.765 C 41.088 165.736, 39.263 167.077, 37.750 167.744 C 36.237 168.411, 35 169.670, 35 170.542 C 35 171.728, 34.181 172.048, 31.750 171.813 C 28.658 171.515, 28.495 171.292, 28.394 167.220 C 28.290 163.003, 29.163 161.578, 31.883 161.526 C 33.423 161.497, 35.519 157, 33.992 157 C 32.734 157, 33.657 143.118, 35.025 141.470 C 35.606 140.769, 37.189 139.919, 38.541 139.579 C 42.146 138.674, 41.947 134.480, 38.250 133.452 C 33.770 132.206, 33 132.136, 33 132.972 C 33 134.531, 28.652 134.870, 26.650 133.467 C 24.865 132.217, 24.389 132.243, 22.806 133.675 C 21.813 134.574, 21 135.915, 21 136.655 C 21 137.395, 20.502 138, 19.893 138 C 19.284 138, 19.045 137.325, 19.362 136.500 C 20.103 134.569, 18.574 134.569, 16.643 136.500 C 15.818 137.325, 14.548 138.014, 13.821 138.032 C 13.095 138.049, 11.681 138.684, 10.680 139.443 C 9.162 140.594, 9.097 140.962, 10.284 141.661 C 11.067 142.123, 12.170 143.400, 12.734 144.500 C 13.930 146.830, 13.236 153, 11.778 153 C 11.212 153, 11.058 154.095, 11.420 155.538 C 12.067 158.116, 10.430 165.470, 8.702 167.750 C 7.519 169.311, 9.735 172.282, 11.341 171.289 C 13.222 170.127, 16.476 170.520, 18.873 172.199 C 21.015 173.699, 21.065 173.974, 19.680 176.651 C 18.869 178.221, 17.259 180.361, 16.102 181.407 C 14.946 182.454, 14 184.088, 14 185.038 C 14 186.840, 11.311 187.963, 6.941 187.986 C 5.534 187.994, 3.539 188.617, 2.508 189.371 C 0.689 190.701, 0.686 190.937, 2.413 197.318 C 4.336 204.421, 3.876 211.623, 1.381 213.483 C 0.380 214.229, 0.183 215.886, 0.642 219.706 L 1.268 224.913 4.384 223.261 C 6.098 222.352, 8.138 221.501, 8.918 221.368 C 9.698 221.236, 11.918 219.268, 13.852 216.995 C 15.785 214.721, 18.576 212.236, 20.054 211.472 C 22.406 210.256, 23.160 210.297, 26.120 211.806 C 29.958 213.762, 33.428 213.558, 32.609 211.425 C 32.314 210.654, 32.393 210.072, 32.786 210.130 C 35.428 210.524, 36.176 209.836, 35.600 207.541 C 35.043 205.324, 35.403 204.969, 39.241 203.940 C 41.584 203.311, 43.931 202.534, 44.458 202.211 C 46.233 201.125, 49.963 201.131, 50.637 202.222 C 51.005 202.817, 50.451 203.928, 49.408 204.691 C 47.768 205.890, 47.713 206.212, 49.005 207.058 C 50.302 207.908, 50.256 208.224, 48.663 209.442 C 46.893 210.796, 46.906 210.953, 49.006 213.795 L 51.186 216.743 55.646 214.371 C 60.538 211.770, 63.998 211.306, 64.004 213.250 C 64.006 213.938, 64.899 213.037, 65.989 211.250 C 68.099 207.790, 70 206.988, 70 209.559 C 70 210.558, 70.449 210.836, 71.250 210.334 C 71.938 209.903, 73.287 209.679, 74.250 209.838 C 75.251 210.002, 76 209.499, 76 208.662 C 76 207.637, 77.049 207.228, 79.500 207.297 C 83.405 207.408, 83.394 207.396, 81.996 210.007 C 81.200 211.495, 81.458 212.207, 83.246 213.460 C 84.486 214.328, 85.520 215.592, 85.545 216.269 C 85.570 216.946, 86.172 217.375, 86.881 217.221 C 88.136 216.951, 95 220.686, 95 221.639 C 95 221.901, 93.795 224.227, 92.321 226.808 C 90.229 230.473, 89.597 233.005, 89.436 238.374 C 89.254 244.460, 89.455 245.306, 91.196 245.761 C 93.116 246.264, 93.175 247.205, 91.536 251.173 C 91.054 252.339, 91.551 253.211, 93.172 254.047 C 94.453 254.708, 96.479 256.458, 97.676 257.937 C 100.871 261.885, 107.597 266.250, 110.484 266.250 C 113.170 266.250, 113.762 267.838, 111.806 269.794 C 110.880 270.720, 111.122 271.465, 112.885 273.108 C 114.469 274.583, 114.987 275.917, 114.590 277.499 C 113.910 280.207, 115.492 281.748, 119.845 282.619 C 122.723 283.195, 124.362 285, 122.006 285 C 121.460 285, 121.184 286.012, 121.393 287.250 C 121.602 288.488, 122.342 289.365, 123.036 289.200 C 123.730 289.035, 125.019 289.212, 125.899 289.594 C 126.780 289.975, 128.695 290.193, 130.156 290.078 C 132.675 289.880, 138.496 293.579, 144.778 299.370 C 148.139 302.469, 150.117 306.483, 148.887 307.713 C 147.838 308.762, 147.740 311.665, 148.439 321 C 149.429 334.230, 151.449 336.717, 157.795 332.517 C 160.821 330.515, 162.643 329.944, 164.514 330.414 C 165.926 330.769, 166.810 331.499, 166.478 332.036 C 166.145 332.574, 166.874 334.419, 168.097 336.136 C 169.963 338.757, 170.123 339.574, 169.091 341.227 C 168.414 342.309, 167.987 344.945, 168.142 347.083 C 168.352 349.995, 167.930 351.342, 166.461 352.450 C 164.549 353.893, 164.574 353.991, 167.500 356.429 C 169.150 357.803, 170.993 358.944, 171.595 358.964 C 173.383 359.023, 176 362.494, 176 364.809 C 176 367.428, 173.067 375, 172.052 375 C 170.894 375, 169 379.832, 168.996 382.797 C 168.994 384.284, 168.094 386.973, 166.996 388.774 C 164.527 392.824, 164.451 395.636, 166.777 396.881 C 168.922 398.029, 182.701 400.027, 187.822 399.932 C 191.135 399.871, 191.283 399.760, 189.315 398.808 C 187.584 397.972, 187.178 396.997, 187.361 394.126 C 187.489 392.132, 187.922 390.554, 188.324 390.619 C 193.777 391.509, 201.175 393.474, 201.588 394.143 C 201.880 394.614, 202.793 395, 203.618 395 C 204.443 395, 204.838 394.547, 204.496 393.993 C 204.153 393.439, 204.577 392.716, 205.437 392.386 C 208.156 391.343, 207.131 390, 203.615 390 C 201.089 390, 199.805 389.352, 198.557 387.447 C 197.636 386.041, 196.124 385.022, 195.192 385.180 C 194.261 385.337, 192.387 384.686, 191.027 383.733 C 189.668 382.780, 187.418 381.986, 186.027 381.968 C 182.384 381.922, 179.646 379.455, 179.407 376.001 C 179.293 374.354, 179.605 373.256, 180.100 373.562 C 180.595 373.868, 181 373.652, 181 373.082 C 181 372.513, 182.825 371.165, 185.056 370.087 C 188.483 368.431, 189.198 368.353, 189.670 369.581 C 189.976 370.381, 190.922 370.915, 191.772 370.768 C 192.743 370.599, 193.614 371.590, 194.121 373.437 C 194.564 375.052, 196.134 377.411, 197.609 378.679 C 200.010 380.742, 201.158 380.956, 208.547 380.718 C 215.548 380.493, 216.970 380.722, 217.909 382.226 C 219.345 384.525, 221.875 384.445, 225 382 C 226.375 380.924, 228.400 380.033, 229.500 380.018 C 230.600 380.004, 233.018 379.067, 234.873 377.936 C 238.463 375.748, 241 375.963, 241 378.456 C 241 380.337, 233.305 385.331, 231.484 384.632 C 230.635 384.307, 229.311 385.904, 227.827 389.043 C 226.442 391.972, 224.835 393.972, 223.857 393.982 C 221.901 394.003, 220.870 396.171, 221.970 397.951 C 222.597 398.967, 224.828 398.873, 233.127 397.485 C 296.800 386.831, 351.864 345.606, 380.034 287.500 C 393.746 259.217, 400.171 231.542, 400 201.500 C 399.754 158.492, 389.831 124.940, 366.823 89.330 C 360.058 78.860, 358.014 76.620, 358.754 80.491 M 344.789 104.545 C 344.431 104.903, 344.380 105.827, 344.676 106.598 C 344.972 107.369, 344.716 108.056, 344.107 108.125 C 343.498 108.194, 342.550 108.362, 342 108.500 C 341.450 108.638, 340.550 108.806, 340 108.875 C 339.450 108.944, 339 109.388, 339 109.861 C 339 110.335, 340.125 110.508, 341.500 110.245 C 343.704 109.823, 344 110.112, 344 112.680 C 344 115.202, 344.369 115.587, 346.750 115.546 C 348.823 115.511, 349.579 114.946, 349.820 113.250 C 349.995 112.013, 349.658 111, 349.070 111 C 347.403 111, 347.812 108.858, 349.748 107.442 C 350.710 106.739, 351.272 105.938, 350.996 105.663 C 350.057 104.724, 345.441 103.892, 344.789 104.545 M 275.893 148.885 C 273.806 150.576, 273.717 150.955, 275.032 152.547 C 276.387 154.185, 276.287 154.282, 273.750 153.800 C 271.059 153.289, 271 153.381, 271 158.080 C 271 163.587, 272.005 164.757, 274.432 162.075 C 276.201 160.120, 277.542 159.959, 279.882 161.419 C 280.818 162.003, 281.605 161.671, 282.321 160.390 C 282.903 159.351, 283.343 158.275, 283.300 158 C 283.256 157.725, 284.182 156.150, 285.358 154.500 C 286.535 152.850, 287.498 151.200, 287.498 150.833 C 287.499 150.467, 287.837 149.829, 288.250 149.417 C 289.988 147.679, 288.685 147, 283.611 147 C 279.821 147, 277.531 147.559, 275.893 148.885 M 254.752 187.841 C 251.987 189.510, 250.922 191.551, 253.250 190.721 C 253.938 190.475, 255.742 190.901, 257.259 191.668 C 261.309 193.712, 264.388 191.945, 262.809 188.481 C 261.496 185.599, 258.820 185.386, 254.752 187.841 M 25.177 191.553 C 25.629 193.725, 27.404 193.858, 27.810 191.750 C 28.020 190.655, 27.530 190, 26.500 190 C 25.539 190, 24.988 190.647, 25.177 191.553 M 42.933 190.750 C 42.895 191.162, 42.671 192.995, 42.433 194.823 C 42.087 197.483, 42.324 198.082, 43.618 197.823 C 45.797 197.388, 46.584 190, 44.452 190 C 43.653 190, 42.970 190.338, 42.933 190.750 M 41.750 208.689 C 38.871 209.442, 39.763 211.436, 43.500 212.606 C 46.711 213.611, 48.315 212.931, 46.044 211.527 C 45.518 211.202, 45.341 210.275, 45.651 209.468 C 46.216 207.994, 45.192 207.790, 41.750 208.689 M 284.846 229.532 C 286.065 231.081, 287 233.705, 287 235.576 C 287 240, 288.272 240.541, 289.920 236.819 C 290.971 234.445, 290.997 233.616, 290.042 233.026 C 289.369 232.610, 288.286 231.201, 287.634 229.894 C 286.983 228.587, 285.604 227.355, 284.571 227.156 C 282.828 226.820, 282.847 226.991, 284.846 229.532 M 140 237 C 138.787 237.784, 138.931 237.972, 140.750 237.985 C 141.988 237.993, 143 237.550, 143 237 C 143 235.747, 141.939 235.747, 140 237 M 156.695 242.700 C 154.542 243.258, 154.972 245.366, 157.333 245.823 C 158.457 246.041, 159 245.471, 159 244.073 C 159 242.933, 158.887 242.052, 158.750 242.116 C 158.613 242.180, 157.688 242.443, 156.695 242.700 M 297.419 244.132 C 297.034 244.754, 297.457 245.676, 298.360 246.181 C 299.341 246.730, 300.006 248.386, 300.015 250.300 C 300.026 252.475, 300.306 253.065, 300.890 252.143 C 301.446 251.266, 302.591 251.024, 304.125 251.458 C 305.780 251.927, 306.082 251.842, 305.122 251.177 C 304.364 250.653, 304.045 249.736, 304.413 249.140 C 304.782 248.544, 304.338 246.919, 303.427 245.528 C 301.701 242.895, 298.625 242.180, 297.419 244.132 M 167.559 250.532 C 165.681 251.952, 165.697 252.001, 168.059 252.030 C 170.188 252.057, 170.278 252.190, 168.762 253.073 C 166.324 254.494, 164.569 257.886, 166.412 257.616 C 167.175 257.504, 168.519 256.814, 169.399 256.084 C 170.280 255.353, 171.010 255.148, 171.022 255.628 C 171.056 256.968, 174.952 251.672, 174.978 250.250 C 175.008 248.531, 169.951 248.723, 167.559 250.532 M 297.250 258.689 C 298.212 258.941, 299.041 259.676, 299.092 260.323 C 299.142 260.970, 299.255 262.850, 299.342 264.500 C 299.473 266.987, 299.926 267.500, 301.986 267.500 C 305.709 267.500, 305.703 264.459, 301.973 260.974 C 300.221 259.338, 298.049 258.052, 297.144 258.116 C 295.731 258.216, 295.746 258.296, 297.250 258.689 M 132 266.500 C 132 267.433, 132.944 268, 134.500 268 C 136.056 268, 137 267.433, 137 266.500 C 137 265.567, 136.056 265, 134.500 265 C 132.944 265, 132 265.567, 132 266.500 M 153.298 289.334 C 153.622 290.179, 153.350 291.091, 152.694 291.359 C 151.840 291.709, 151.925 292.142, 152.992 292.882 C 154.705 294.070, 155.690 293.342, 156.166 290.536 C 156.385 289.248, 155.848 288.439, 154.604 288.185 C 153.232 287.904, 152.871 288.222, 153.298 289.334 M 162.527 294.956 C 162.202 295.482, 161.270 295.657, 160.457 295.345 C 159.437 294.954, 159.158 295.248, 159.558 296.290 C 160.165 297.873, 163.480 299.186, 164.442 298.225 C 164.749 297.918, 165 296.842, 165 295.833 C 165 293.886, 163.514 293.359, 162.527 294.956 M 180.638 369.500 C 180.322 370.325, 180.499 371, 181.031 371 C 181.564 371, 182 370.580, 182 370.066 C 182 369.553, 183.238 368.945, 184.750 368.716 C 187.395 368.316, 187.380 368.294, 184.357 368.150 C 182.379 368.056, 181.001 368.556, 180.638 369.500 M 170 371 C 170 372.100, 169.550 373, 169 373 C 168.450 373, 168 373.408, 168 373.906 C 168 374.405, 168.900 374.577, 170 374.290 C 172.063 373.750, 172.961 369, 171 369 C 170.450 369, 170 369.900, 170 371" stroke="none" fill="#dbd7db" fill-rule="evenodd"/><path d="M 179.500 0.672 C 116.845 8.447, 65.761 39.737, 32.034 91 C 20.197 108.991, 4.061 146.339, 11.217 139.183 C 11.867 138.532, 13.017 138, 13.771 138 C 14.526 138, 15.818 137.325, 16.643 136.500 C 18.574 134.569, 20.103 134.569, 19.362 136.500 C 19.045 137.325, 19.284 138, 19.893 138 C 20.502 138, 21 137.395, 21 136.655 C 21 135.915, 21.813 134.574, 22.806 133.675 C 24.389 132.243, 24.865 132.217, 26.650 133.467 C 28.652 134.870, 33 134.531, 33 132.972 C 33 132.136, 33.770 132.206, 38.250 133.452 C 41.947 134.480, 42.146 138.674, 38.541 139.579 C 37.189 139.919, 35.606 140.769, 35.025 141.470 C 33.657 143.118, 32.734 157, 33.992 157 C 35.519 157, 33.423 161.497, 31.883 161.526 C 29.163 161.578, 28.290 163.003, 28.394 167.220 C 28.495 171.292, 28.658 171.515, 31.750 171.813 C 34.181 172.048, 35 171.728, 35 170.542 C 35 169.670, 36.237 168.411, 37.750 167.744 C 39.263 167.077, 41.088 165.736, 41.807 164.765 C 42.549 163.762, 44.406 163, 46.106 163 C 52.335 163, 55.946 159.508, 55.986 153.444 C 55.994 152.314, 57.069 149.939, 58.376 148.167 C 59.684 146.396, 61.033 143.193, 61.376 141.051 C 61.920 137.645, 62.471 136.998, 65.749 135.901 C 71.262 134.057, 73.775 133.972, 74.403 135.607 C 74.875 136.839, 75.537 136.771, 78.730 135.167 C 83.439 132.801, 88.974 132.582, 90.524 134.701 C 91.430 135.940, 92.089 136.041, 93.589 135.170 C 94.640 134.560, 95.167 134.047, 94.760 134.030 C 94.055 134.001, 94.557 133.277, 98.696 128.356 C 99.688 127.176, 101.702 125.939, 103.171 125.606 C 105.546 125.069, 105.919 125.355, 106.543 128.194 C 107.304 131.660, 108.531 133.245, 111.250 134.275 C 115.398 135.845, 112.101 141, 106.949 141 C 105.315 141, 104.889 141.466, 105.253 142.858 C 106.444 147.415, 102.002 148.876, 97.849 145.294 C 96.737 144.335, 95.984 144.217, 95.540 144.935 C 95.178 145.521, 93.784 146, 92.441 146 C 90.667 146, 90 145.454, 90 144 C 90 140.912, 86.662 141.551, 83.622 145.220 C 82.155 146.991, 81.201 149.081, 81.502 149.865 C 81.802 150.648, 81.411 152.012, 80.632 152.895 C 78.985 154.763, 78.010 162.837, 79.378 163.293 C 79.889 163.463, 79.113 164.796, 77.653 166.256 C 76.194 167.715, 75 169.646, 75 170.547 C 75 171.448, 74.125 173.297, 73.056 174.656 C 71.987 176.015, 71.370 177.801, 71.686 178.623 C 72.057 179.591, 71.508 180.316, 70.130 180.676 C 68.958 180.983, 68 181.824, 68 182.545 C 68 184.712, 65.033 186.998, 62.179 187.030 C 59.876 187.057, 59.746 187.204, 61.250 188.080 C 63.666 189.487, 63.452 192, 60.917 192 C 59.681 192, 59.013 192.509, 59.274 193.250 C 59.517 193.938, 60.454 194.437, 61.358 194.361 C 62.261 194.285, 63.015 194.735, 63.033 195.361 C 63.052 195.987, 63.913 195.485, 64.948 194.244 C 66.214 192.726, 66.973 192.399, 67.269 193.244 C 67.593 194.170, 68.223 194.044, 69.670 192.762 C 70.748 191.806, 73.074 190.735, 74.836 190.383 C 76.599 190.030, 78.284 189.350, 78.580 188.871 C 79.724 187.019, 81.650 188.144, 82.805 191.337 C 83.469 193.173, 85.809 196.119, 88.006 197.885 C 90.294 199.724, 92 201.959, 92 203.120 C 92 204.867, 98.984 212.341, 100.846 212.586 C 101.206 212.634, 102.175 212.945, 103 213.278 C 103.825 213.611, 105.380 214.024, 106.456 214.197 C 107.577 214.377, 108.664 215.576, 109.002 217.005 C 109.463 218.957, 110.235 219.508, 112.546 219.536 C 117.109 219.593, 118.269 220.750, 117.559 224.537 C 117.027 227.371, 117.266 227.957, 119.219 228.619 C 120.474 229.044, 122.108 229.274, 122.850 229.129 C 123.593 228.985, 123.948 229.275, 123.640 229.774 C 122.764 231.191, 128.604 234.996, 131.710 235.032 C 133.244 235.049, 135.374 235.724, 136.441 236.532 C 138.054 237.752, 138.109 238, 136.764 238 C 135.874 238, 134.260 239.125, 133.179 240.500 C 132.097 241.875, 130.489 243, 129.606 243 C 127.380 243, 127.591 245.728, 129.930 247.188 C 131.381 248.095, 131.626 248.830, 130.917 250.155 C 130.199 251.497, 130.454 252.172, 131.987 252.993 C 134.099 254.123, 134.709 257.444, 133 258.500 C 132.450 258.840, 132 259.802, 132 260.638 C 132 261.830, 132.704 262.008, 135.250 261.464 C 137.037 261.082, 139.073 260.307, 139.774 259.742 C 141.315 258.500, 141.529 258.712, 142.399 262.334 C 142.801 264.007, 142.698 264.931, 142.147 264.591 C 141.633 264.273, 140.918 265.189, 140.558 266.625 C 140.018 268.777, 140.527 269.792, 143.451 272.394 C 147.559 276.049, 148.015 277.917, 144.640 277.272 C 142.874 276.934, 142.143 277.347, 141.734 278.910 C 141.284 280.631, 141.643 281, 143.765 281 C 145.183 281, 147.113 280.303, 148.054 279.451 C 149.185 278.428, 150.652 278.125, 152.382 278.560 C 155.204 279.268, 156.025 282, 153.417 282 C 149.955 282, 152.910 284.377, 157.986 285.676 C 162.613 286.860, 163.575 286.854, 164.797 285.632 C 166.027 284.401, 165.729 284.031, 162.588 282.896 C 160.591 282.173, 158.279 280.549, 157.452 279.286 C 156.077 277.188, 156.130 276.743, 158.073 274.115 C 159.461 272.238, 160.827 271.404, 162.009 271.712 C 163.518 272.107, 163.961 271.301, 164.679 266.843 C 165.422 262.236, 165.826 261.539, 167.611 261.786 C 168.750 261.943, 170.977 261.579, 172.561 260.977 C 174.965 260.063, 175.652 260.171, 176.720 261.632 C 178.547 264.130, 178.305 265.769, 176 266.500 C 174.410 267.005, 174 268.013, 174 271.418 C 174 273.774, 173.488 277.171, 172.861 278.968 C 171.800 282.012, 171.938 282.436, 174.879 285.184 C 176.615 286.807, 177.879 288.441, 177.689 288.817 C 177.499 289.193, 175.825 292.650, 173.969 296.500 C 172.114 300.350, 169.826 304.625, 168.887 306 C 167.879 307.474, 167.244 310.129, 167.339 312.468 C 167.495 316.303, 167.642 316.463, 171.770 317.280 C 174.431 317.807, 175.788 318.534, 175.371 319.209 C 174.917 319.943, 175.586 320.070, 177.447 319.603 C 179.071 319.195, 180.762 319.388, 181.590 320.075 C 182.360 320.714, 183.986 320.975, 185.204 320.657 C 186.873 320.220, 188.084 320.869, 190.116 323.289 L 192.812 326.500 195.803 324.754 C 197.829 323.572, 199.808 323.212, 201.939 323.638 C 204.304 324.111, 205.407 323.825, 206.387 322.486 C 207.336 321.187, 208.408 320.886, 210.344 321.372 C 215.421 322.646, 212.527 328.049, 206.478 328.592 C 204.622 328.759, 201.843 329.531, 200.302 330.307 C 198.761 331.084, 196.208 332.030, 194.629 332.409 C 190.946 333.294, 189.042 335.221, 189.492 337.611 C 189.687 338.650, 189.881 340.076, 189.923 340.780 C 189.976 341.658, 190.863 341.425, 192.750 340.039 C 194.263 338.927, 197.525 337.619, 200 337.132 C 202.475 336.645, 205.287 335.918, 206.250 335.516 C 208.824 334.442, 208.506 337.493, 205.757 340.250 C 201.070 344.951, 195.245 347.192, 188.639 346.833 C 183.927 346.577, 182.114 346.886, 180.837 348.163 C 179.287 349.713, 179.372 350.001, 182.087 352.420 C 183.689 353.848, 185 355.687, 185 356.508 C 185 358.435, 187.398 358.431, 189 356.500 C 190.753 354.388, 193.735 354.636, 195 357 C 195.589 358.100, 195.774 359, 195.413 359 C 195.051 359, 195.289 359.643, 195.941 360.429 C 196.960 361.657, 197.575 361.593, 200.313 359.979 C 204.565 357.473, 206.960 358, 208.554 361.790 C 209.806 364.768, 209.721 365.057, 206.884 367.444 C 205.240 368.828, 203.223 370.336, 202.402 370.795 C 201.270 371.429, 201.136 372.228, 201.849 374.103 C 202.560 375.973, 203.471 376.545, 205.589 376.453 C 207.130 376.385, 208.565 375.806, 208.778 375.165 C 208.992 374.524, 209.729 374, 210.416 374 C 211.103 374, 213.117 372.194, 214.891 369.987 L 218.116 365.973 215.074 365.365 C 211.890 364.728, 211.793 363, 214.942 363 C 216.849 363, 217.919 360.854, 218.910 355.043 C 219.369 352.352, 220.319 351.156, 223.201 349.643 C 225.236 348.575, 227.124 347.119, 227.397 346.409 C 227.669 345.698, 227.052 342.732, 226.025 339.816 C 224.998 336.900, 224.492 334.061, 224.900 333.507 C 230.823 325.468, 233.445 323, 236.062 323 C 238.062 323, 240.210 321.691, 243.447 318.500 C 245.958 316.025, 248.831 314, 249.831 314 C 250.832 314, 252.708 312.875, 254 311.500 C 255.292 310.125, 257.395 309, 258.674 309 C 261.599 309, 261.718 306.616, 258.892 304.637 C 257.732 303.824, 257.050 302.729, 257.376 302.201 C 258.018 301.162, 255.459 295.402, 253.937 294.461 C 251.799 293.140, 253.169 291.798, 256.201 292.243 C 257.962 292.501, 261.633 292.124, 264.359 291.405 C 267.822 290.492, 269.886 290.404, 271.211 291.113 C 272.668 291.893, 274.078 291.566, 277.303 289.702 C 279.612 288.368, 282.063 287.477, 282.750 287.722 C 283.438 287.966, 284 287.679, 284 287.083 C 284 286.488, 285.136 286, 286.525 286 C 288.298 286, 289.333 285.256, 290 283.500 C 290.523 282.125, 291.637 281, 292.475 281 C 293.314 281, 294 280.550, 294 280 C 294 279.450, 295.088 279, 296.417 279 C 297.746 279, 299.060 278.437, 299.338 277.750 C 299.615 277.063, 299.878 277.512, 299.921 278.750 C 299.964 279.988, 300.432 281, 300.960 281 C 302.075 281, 307 275.895, 307 274.739 C 307 274.309, 308.163 273.427, 309.585 272.779 C 311.753 271.792, 312.076 271.132, 311.589 268.693 C 311.049 265.995, 311.188 265.830, 313.503 266.412 C 315.628 266.945, 316 266.692, 316 264.719 C 316 263.444, 315.478 261.878, 314.840 261.240 C 313.629 260.029, 313.035 254, 314.128 254 C 314.473 254, 315.315 254.675, 316 255.500 C 317.742 257.599, 321.357 257.368, 323.479 255.024 C 325.516 252.773, 327 253.209, 327 256.059 C 327 257.946, 330.242 262.001, 331.750 261.999 C 332.163 261.999, 332.563 260.912, 332.639 259.585 C 332.814 256.539, 336.010 252.073, 338.043 252.031 C 340.522 251.981, 343.425 242.227, 342.041 238.599 C 341.105 236.145, 341.237 235.375, 342.893 233.599 C 343.970 232.445, 345.152 230.150, 345.519 228.500 C 346.707 223.157, 347.110 222.039, 347.811 222.139 C 351.783 222.704, 356.447 219.053, 357.595 214.479 C 358.954 209.064, 361.999 205, 364.698 205 C 366.073 205, 368.841 204.227, 370.849 203.283 C 375.511 201.090, 384.829 191.556, 385.661 188.126 C 386.012 186.682, 386.906 184.612, 387.649 183.527 C 388.392 182.443, 389 180.958, 389 180.229 C 389 179.500, 389.900 177.041, 391 174.764 C 392.100 172.487, 393 170.065, 393 169.380 C 393 167.570, 387.701 164.085, 383.834 163.351 C 382 163.003, 379.938 162.277, 379.250 161.737 C 378.341 161.023, 378 161.292, 378 162.723 C 378 164.753, 375.630 167.366, 373 168.234 C 370.667 169.005, 368 167.156, 368 164.770 C 368 162.405, 363.382 157, 361.361 157 C 360.665 157, 358.612 158.519, 356.798 160.376 C 352.746 164.524, 347.293 166.074, 346.408 163.330 C 346.084 162.323, 345.362 160.541, 344.804 159.369 C 343.435 156.493, 344.616 153.238, 347.301 152.488 C 349.347 151.917, 353.914 149.981, 354.957 149.243 C 356.326 148.274, 349.306 144, 346.344 144 C 343.667 144, 343 143.601, 343 142 C 343 140.860, 342.333 140, 341.449 140 C 340.596 140, 338.365 138.327, 336.492 136.282 C 333.465 132.978, 333.248 132.384, 334.543 130.953 C 336.517 128.771, 336.376 128, 334 128 C 332.900 128, 331.083 127.083, 329.962 125.962 C 328.509 124.509, 326.886 124.006, 324.317 124.212 C 322.183 124.382, 320.539 124.011, 320.290 123.304 C 319.703 121.634, 327.017 118.106, 330.841 118.215 C 335.637 118.351, 337.985 115.648, 337.750 110.259 C 337.593 106.651, 338.003 105.416, 339.854 103.917 C 341.209 102.820, 341.848 101.563, 341.411 100.856 C 340.952 100.114, 342.166 98.395, 344.584 96.360 C 348.169 93.343, 348.387 92.882, 347.168 90.914 C 345.518 88.252, 346.671 86.991, 350.132 87.671 C 352.118 88.061, 352.642 88.652, 352.268 90.082 C 351.636 92.499, 354.464 93.690, 356.608 91.910 C 357.775 90.941, 358.032 89.599, 357.584 86.798 C 357.180 84.272, 357.357 83, 358.113 83 C 360.913 83, 357.574 76.243, 350.875 68.353 C 334.611 49.196, 311.682 31.690, 287.500 19.966 C 258.596 5.953, 231.774 -0.082, 199.500 0.168 C 190.150 0.240, 181.150 0.467, 179.500 0.672 M 326 69.489 C 326 71.249, 322.982 75, 321.566 75 C 321.021 75, 318.759 76.767, 316.538 78.926 C 314.317 81.086, 310.926 83.252, 309.002 83.740 C 304.159 84.967, 303.936 87.494, 308.534 89.011 C 311.107 89.860, 312.473 91.059, 313.181 93.088 C 314.114 95.765, 314.493 95.939, 318.701 95.613 C 323.492 95.242, 324.960 93.965, 324.985 90.144 C 324.993 88.849, 326.164 86.405, 327.588 84.713 C 329.669 82.239, 330.097 80.842, 329.775 77.569 C 329.494 74.723, 329.832 73.157, 330.899 72.358 C 332.181 71.399, 332.211 70.960, 331.090 69.608 C 329.412 67.586, 326 67.506, 326 69.489 M 344.789 104.545 C 344.431 104.903, 344.380 105.827, 344.676 106.598 C 344.972 107.369, 344.716 108.056, 344.107 108.125 C 343.498 108.194, 342.550 108.362, 342 108.500 C 341.450 108.638, 340.550 108.806, 340 108.875 C 339.450 108.944, 339 109.388, 339 109.861 C 339 110.335, 340.125 110.508, 341.500 110.245 C 343.704 109.823, 344 110.112, 344 112.680 C 344 115.202, 344.369 115.587, 346.750 115.546 C 348.823 115.511, 349.579 114.946, 349.820 113.250 C 349.995 112.013, 349.658 111, 349.070 111 C 347.403 111, 347.812 108.858, 349.748 107.442 C 350.710 106.739, 351.272 105.938, 350.996 105.663 C 350.057 104.724, 345.441 103.892, 344.789 104.545 M 5.589 151.814 C 1.667 168.216, 0.039 181.927, 0.018 198.719 C 0.003 211.340, 0.238 213.846, 1.397 213.401 C 3.837 212.465, 4.335 204.417, 2.396 197.252 C 0.688 190.944, 0.692 190.699, 2.508 189.371 C 3.539 188.617, 5.534 187.994, 6.941 187.986 C 11.311 187.963, 14 186.840, 14 185.038 C 14 184.088, 14.946 182.454, 16.102 181.407 C 17.259 180.361, 18.869 178.221, 19.680 176.651 C 21.065 173.974, 21.015 173.699, 18.873 172.199 C 16.476 170.520, 13.222 170.127, 11.341 171.289 C 9.735 172.282, 7.519 169.311, 8.702 167.750 C 10.430 165.470, 12.067 158.116, 11.420 155.538 C 11.058 154.095, 11.212 153, 11.778 153 C 13.237 153, 13.929 146.827, 12.731 144.500 C 11.698 142.495, 10.077 141.044, 8.837 141.015 C 8.473 141.007, 7.011 145.866, 5.589 151.814 M 275.893 148.885 C 273.806 150.576, 273.717 150.955, 275.032 152.547 C 276.387 154.185, 276.287 154.282, 273.750 153.800 C 271.059 153.289, 271 153.381, 271 158.080 C 271 163.587, 272.005 164.757, 274.432 162.075 C 276.201 160.120, 277.542 159.959, 279.882 161.419 C 280.818 162.003, 281.605 161.671, 282.321 160.390 C 282.903 159.351, 283.343 158.275, 283.300 158 C 283.256 157.725, 284.182 156.150, 285.358 154.500 C 286.535 152.850, 287.498 151.200, 287.498 150.833 C 287.499 150.467, 287.837 149.829, 288.250 149.417 C 289.988 147.679, 288.685 147, 283.611 147 C 279.821 147, 277.531 147.559, 275.893 148.885 M 254.752 187.841 C 251.987 189.510, 250.922 191.551, 253.250 190.721 C 253.938 190.475, 255.742 190.901, 257.259 191.668 C 261.309 193.712, 264.388 191.945, 262.809 188.481 C 261.496 185.599, 258.820 185.386, 254.752 187.841 M 25.177 191.553 C 25.629 193.725, 27.404 193.858, 27.810 191.750 C 28.020 190.655, 27.530 190, 26.500 190 C 25.539 190, 24.988 190.647, 25.177 191.553 M 42.933 190.750 C 42.895 191.162, 42.671 192.995, 42.433 194.823 C 42.087 197.483, 42.324 198.082, 43.618 197.823 C 45.797 197.388, 46.584 190, 44.452 190 C 43.653 190, 42.970 190.338, 42.933 190.750 M 44.451 202.080 C 44.222 202.451, 41.995 203.267, 39.502 203.895 C 35.363 204.937, 35.025 205.251, 35.594 207.518 C 36.176 209.838, 35.437 210.526, 32.786 210.130 C 32.393 210.072, 32.314 210.654, 32.609 211.425 C 33.428 213.558, 29.958 213.762, 26.120 211.806 C 23.160 210.297, 22.406 210.256, 20.054 211.472 C 18.576 212.236, 15.785 214.721, 13.852 216.995 C 11.918 219.268, 9.698 221.236, 8.918 221.368 C 5.342 221.976, 0.915 225.164, 1.375 226.802 C 1.637 227.736, 2.391 231.875, 3.052 236 C 5.747 252.842, 13.961 276.690, 22.685 293 C 43.367 331.665, 74.040 361.388, 112.500 380.034 C 129.567 388.308, 145.340 393.468, 166 397.535 C 168.108 397.950, 168.226 397.861, 166.750 396.964 C 164.453 395.568, 164.536 392.809, 166.996 388.774 C 168.094 386.973, 168.994 384.284, 168.996 382.797 C 169 379.832, 170.894 375, 172.052 375 C 173.101 375, 176 367.388, 176 364.635 C 176 362.383, 173.298 359.037, 171.421 358.964 C 170.915 358.944, 169.150 357.803, 167.500 356.429 C 164.574 353.991, 164.549 353.893, 166.461 352.450 C 167.930 351.342, 168.352 349.995, 168.142 347.083 C 167.987 344.945, 168.414 342.309, 169.091 341.227 C 170.123 339.574, 169.963 338.757, 168.097 336.136 C 166.874 334.419, 166.145 332.574, 166.478 332.036 C 166.810 331.499, 165.926 330.769, 164.514 330.414 C 162.643 329.944, 160.821 330.515, 157.795 332.517 C 151.449 336.717, 149.429 334.230, 148.439 321 C 147.740 311.665, 147.838 308.762, 148.887 307.713 C 150.117 306.483, 148.139 302.469, 144.778 299.370 C 138.496 293.579, 132.675 289.880, 130.156 290.078 C 128.695 290.193, 126.780 289.975, 125.899 289.594 C 125.019 289.212, 123.730 289.035, 123.036 289.200 C 122.342 289.365, 121.602 288.488, 121.393 287.250 C 121.184 286.012, 121.460 285, 122.006 285 C 124.362 285, 122.723 283.195, 119.845 282.619 C 115.492 281.748, 113.910 280.207, 114.590 277.499 C 114.987 275.917, 114.469 274.583, 112.885 273.108 C 111.122 271.465, 110.880 270.720, 111.806 269.794 C 113.762 267.838, 113.170 266.250, 110.484 266.250 C 107.597 266.250, 100.871 261.885, 97.676 257.937 C 96.479 256.458, 94.453 254.708, 93.172 254.047 C 91.551 253.211, 91.054 252.339, 91.536 251.173 C 93.175 247.205, 93.116 246.264, 91.196 245.761 C 89.455 245.306, 89.254 244.460, 89.436 238.374 C 89.597 233.005, 90.229 230.473, 92.321 226.808 C 93.795 224.227, 95 221.901, 95 221.639 C 95 220.686, 88.136 216.951, 86.881 217.221 C 86.172 217.375, 85.570 216.946, 85.545 216.269 C 85.520 215.592, 84.486 214.328, 83.246 213.460 C 81.458 212.207, 81.200 211.495, 81.996 210.007 C 83.394 207.396, 83.405 207.408, 79.500 207.297 C 77.049 207.228, 76 207.637, 76 208.662 C 76 209.499, 75.251 210.002, 74.250 209.838 C 73.287 209.679, 71.938 209.903, 71.250 210.334 C 70.449 210.836, 70 210.558, 70 209.559 C 70 206.988, 68.099 207.790, 65.989 211.250 C 64.899 213.037, 64.006 213.938, 64.004 213.250 C 63.998 211.306, 60.538 211.770, 55.646 214.371 L 51.186 216.743 49.006 213.795 C 46.906 210.953, 46.893 210.796, 48.663 209.442 C 50.256 208.224, 50.302 207.908, 49.005 207.058 C 47.719 206.216, 47.789 205.874, 49.503 204.621 C 50.600 203.819, 51.123 202.789, 50.665 202.332 C 49.659 201.325, 45.033 201.137, 44.451 202.080 M 41.750 208.689 C 38.871 209.442, 39.763 211.436, 43.500 212.606 C 46.711 213.611, 48.315 212.931, 46.044 211.527 C 45.518 211.202, 45.341 210.275, 45.651 209.468 C 46.216 207.994, 45.192 207.790, 41.750 208.689 M 284.846 229.532 C 286.065 231.081, 287 233.705, 287 235.576 C 287 240, 288.272 240.541, 289.920 236.819 C 290.971 234.445, 290.997 233.616, 290.042 233.026 C 289.369 232.610, 288.286 231.201, 287.634 229.894 C 286.983 228.587, 285.604 227.355, 284.571 227.156 C 282.828 226.820, 282.847 226.991, 284.846 229.532 M 140 237 C 138.787 237.784, 138.931 237.972, 140.750 237.985 C 141.988 237.993, 143 237.550, 143 237 C 143 235.747, 141.939 235.747, 140 237 M 156.695 242.700 C 154.542 243.258, 154.972 245.366, 157.333 245.823 C 158.457 246.041, 159 245.471, 159 244.073 C 159 242.933, 158.887 242.052, 158.750 242.116 C 158.613 242.180, 157.688 242.443, 156.695 242.700 M 297.419 244.132 C 297.034 244.754, 297.457 245.676, 298.360 246.181 C 299.341 246.730, 300.006 248.386, 300.015 250.300 C 300.026 252.475, 300.306 253.065, 300.890 252.143 C 301.446 251.266, 302.591 251.024, 304.125 251.458 C 305.780 251.927, 306.082 251.842, 305.122 251.177 C 304.364 250.653, 304.045 249.736, 304.413 249.140 C 304.782 248.544, 304.338 246.919, 303.427 245.528 C 301.701 242.895, 298.625 242.180, 297.419 244.132 M 167.559 250.532 C 165.681 251.952, 165.697 252.001, 168.059 252.030 C 170.188 252.057, 170.278 252.190, 168.762 253.073 C 166.324 254.494, 164.569 257.886, 166.412 257.616 C 167.175 257.504, 168.519 256.814, 169.399 256.084 C 170.280 255.353, 171.010 255.148, 171.022 255.628 C 171.056 256.968, 174.952 251.672, 174.978 250.250 C 175.008 248.531, 169.951 248.723, 167.559 250.532 M 297.250 258.689 C 298.212 258.941, 299.041 259.676, 299.092 260.323 C 299.142 260.970, 299.255 262.850, 299.342 264.500 C 299.473 266.987, 299.926 267.500, 301.986 267.500 C 305.709 267.500, 305.703 264.459, 301.973 260.974 C 300.221 259.338, 298.049 258.052, 297.144 258.116 C 295.731 258.216, 295.746 258.296, 297.250 258.689 M 132 266.500 C 132 267.433, 132.944 268, 134.500 268 C 136.056 268, 137 267.433, 137 266.500 C 137 265.567, 136.056 265, 134.500 265 C 132.944 265, 132 265.567, 132 266.500 M 153.298 289.334 C 153.622 290.179, 153.350 291.091, 152.694 291.359 C 151.840 291.709, 151.925 292.142, 152.992 292.882 C 154.705 294.070, 155.690 293.342, 156.166 290.536 C 156.385 289.248, 155.848 288.439, 154.604 288.185 C 153.232 287.904, 152.871 288.222, 153.298 289.334 M 162.527 294.956 C 162.202 295.482, 161.270 295.657, 160.457 295.345 C 159.437 294.954, 159.158 295.248, 159.558 296.290 C 160.165 297.873, 163.480 299.186, 164.442 298.225 C 164.749 297.918, 165 296.842, 165 295.833 C 165 293.886, 163.514 293.359, 162.527 294.956 M 180.638 369.500 C 180.322 370.325, 180.499 371, 181.031 371 C 181.564 371, 182 370.580, 182 370.066 C 182 369.553, 183.238 368.945, 184.750 368.716 C 187.395 368.316, 187.380 368.294, 184.357 368.150 C 182.379 368.056, 181.001 368.556, 180.638 369.500 M 184.750 370.172 C 182.688 371.186, 181 372.489, 181 373.067 C 181 373.645, 180.595 373.868, 180.100 373.562 C 179.605 373.256, 179.293 374.354, 179.407 376.001 C 179.646 379.455, 182.384 381.922, 186.027 381.968 C 187.418 381.986, 189.668 382.780, 191.027 383.733 C 192.387 384.686, 194.261 385.337, 195.192 385.180 C 196.124 385.022, 197.636 386.041, 198.557 387.447 C 199.805 389.352, 201.089 390, 203.615 390 C 207.131 390, 208.156 391.343, 205.437 392.386 C 204.577 392.716, 204.153 393.439, 204.496 393.993 C 204.838 394.547, 204.443 395, 203.618 395 C 202.793 395, 201.880 394.614, 201.588 394.143 C 201.096 393.347, 189.978 390.594, 188.309 390.855 C 187.899 390.920, 187.466 392.494, 187.347 394.355 C 187.041 399.129, 189.600 400, 203.922 400 C 216.974 400, 222.097 399.322, 221.896 397.622 C 221.587 395.013, 222.103 393.999, 223.750 393.982 C 224.856 393.971, 226.356 392.154, 227.827 389.043 C 229.311 385.904, 230.635 384.307, 231.484 384.632 C 233.305 385.331, 241 380.337, 241 378.456 C 241 375.963, 238.463 375.748, 234.873 377.936 C 233.018 379.067, 230.600 380.004, 229.500 380.018 C 228.400 380.033, 226.375 380.924, 225 382 C 221.875 384.445, 219.345 384.525, 217.909 382.226 C 216.970 380.722, 215.548 380.493, 208.547 380.718 C 201.158 380.956, 200.010 380.742, 197.609 378.679 C 196.134 377.411, 194.555 375.052, 194.100 373.437 C 193.645 371.822, 192.711 370.629, 192.024 370.787 C 191.337 370.946, 190.263 370.457, 189.638 369.702 C 188.682 368.548, 187.901 368.623, 184.750 370.172 M 170 371 C 170 372.100, 169.550 373, 169 373 C 168.450 373, 168 373.408, 168 373.906 C 168 374.405, 168.900 374.577, 170 374.290 C 172.063 373.750, 172.961 369, 171 369 C 170.450 369, 170 369.900, 170 371" stroke="none" fill="#9a79a2" fill-rule="evenodd"/></svg>